<svg xmlns="http://www.w3.org/2000/svg" fill="#fff" width="104.531" height="60.329" viewBox="0 0 104.531 60.329">
  <g id="DotNet" transform="translate(-2.929 -61.997)">
    <path id="Path_1288" data-name="Path 1288" d="M30.762,77.907h-1.74V67.944c0-.787.051-1.745.144-2.875h-.039a9.57,9.57,0,0,1-.444,1.436l-5.061,11.4h-.848L17.7,66.588a8.348,8.348,0,0,1-.443-1.519h-.038c.054.594.084,1.558.084,2.895v9.943H15.627V63.07h2.3l4.552,10.347a13.452,13.452,0,0,1,.673,1.776h.071c.3-.811.534-1.42.711-1.82l4.651-10.3H30.76V77.907Zm5.356,0H34.426v-10.6h1.692Zm.292-14.394a1.057,1.057,0,0,1-.328.787,1.074,1.074,0,0,1-.788.322,1.094,1.094,0,0,1-.782-.311,1.128,1.128,0,0,1,0-1.578,1.138,1.138,0,0,1,1.57,0,1.051,1.051,0,0,1,.328.78m10.281,13.9a5.437,5.437,0,0,1-2.9.746,4.775,4.775,0,0,1-3.676-1.511,5.345,5.345,0,0,1-1.364-3.786,5.906,5.906,0,0,1,1.5-4.209,5.225,5.225,0,0,1,4.018-1.6,5.4,5.4,0,0,1,2.452.538v1.741a4.3,4.3,0,0,0-2.525-.831,3.394,3.394,0,0,0-2.637,1.128,4.375,4.375,0,0,0-1.068,3.082,4.206,4.206,0,0,0,.979,2.929,3.367,3.367,0,0,0,2.621,1.076,4.279,4.279,0,0,0,2.606-.911v1.611h0Zm8.095-8.386a2.269,2.269,0,0,0-3.033.589,4.643,4.643,0,0,0-.8,2.886v5.4h-1.7v-10.6h1.7V69.5H51a3.721,3.721,0,0,1,1.148-1.79,2.535,2.535,0,0,1,1.623-.58,2.736,2.736,0,0,1,1.016.145V69.03h0Zm9.451,3.6a4.631,4.631,0,0,0-.918-3.1A3.129,3.129,0,0,0,60.824,68.5a3.271,3.271,0,0,0-2.533,1.036,4.507,4.507,0,0,0-1,3.134,4.275,4.275,0,0,0,.96,2.973,3.283,3.283,0,0,0,2.575,1.072,3.1,3.1,0,0,0,2.554-1.085,4.656,4.656,0,0,0,.859-3m1.739-.059a5.713,5.713,0,0,1-1.427,4.061A5.017,5.017,0,0,1,60.7,78.161a4.865,4.865,0,0,1-3.784-1.531,5.512,5.512,0,0,1-1.366-3.9A5.683,5.683,0,0,1,57.1,68.459a5.268,5.268,0,0,1,3.846-1.407,4.762,4.762,0,0,1,3.7,1.469,5.834,5.834,0,0,1,1.327,4.048m8.411,2.5a2.754,2.754,0,0,1-.973,2.159,4.274,4.274,0,0,1-2.908.93,5.2,5.2,0,0,1-2.628-.638V75.7a4.265,4.265,0,0,0,2.754,1.015q2.015,0,2.016-1.48a1.311,1.311,0,0,0-.445-1.023,7.084,7.084,0,0,0-1.739-.974,5.6,5.6,0,0,1-1.893-1.2,2.925,2.925,0,0,1,.373-4.109,4.04,4.04,0,0,1,2.691-.877,5.017,5.017,0,0,1,2.266.5v1.707a4,4,0,0,0-2.4-.755,2.084,2.084,0,0,0-1.349.412,1.32,1.32,0,0,0-.51,1.068,1.419,1.419,0,0,0,.425,1.1,5.919,5.919,0,0,0,1.591.879,6.128,6.128,0,0,1,1.956,1.174,2.61,2.61,0,0,1,.778,1.943m10.366-2.445a4.626,4.626,0,0,0-.92-3.1A3.13,3.13,0,0,0,81.339,68.5,3.28,3.28,0,0,0,78.8,69.537a4.511,4.511,0,0,0-1,3.134,4.312,4.312,0,0,0,.954,2.973,3.312,3.312,0,0,0,2.582,1.072,3.1,3.1,0,0,0,2.554-1.085,4.662,4.662,0,0,0,.86-3m1.742-.059a5.707,5.707,0,0,1-1.433,4.061,5,5,0,0,1-3.848,1.531,4.868,4.868,0,0,1-3.786-1.531,5.516,5.516,0,0,1-1.366-3.9,5.706,5.706,0,0,1,1.551-4.273,5.272,5.272,0,0,1,3.849-1.407,4.748,4.748,0,0,1,3.7,1.469,5.832,5.832,0,0,1,1.333,4.048m7.473-8.858a2.278,2.278,0,0,0-1.126-.278c-1.188,0-1.777.747-1.777,2.245v1.633h2.483v1.438H91.065v9.158h-1.7V68.749h-1.8V67.311h1.8V65.594a3.509,3.509,0,0,1,1.084-2.74A3.248,3.248,0,0,1,92.74,62a3.326,3.326,0,0,1,1.228.184Zm6.694,14.09a3.2,3.2,0,0,1-1.593.343q-2.775,0-2.774-3.128V68.75H94.477V67.311h1.818V64.726c.542-.171,1.105-.357,1.7-.55v3.135h2.667V68.75H97.995v5.979a2.424,2.424,0,0,0,.359,1.513,1.46,1.46,0,0,0,1.211.454,1.789,1.789,0,0,0,1.1-.342V77.8ZM8.978,119.262a2.956,2.956,0,0,1-.895,2.155,2.939,2.939,0,0,1-2.17.909,2.823,2.823,0,0,1-2.116-.909,3.129,3.129,0,0,1,0-4.326,2.832,2.832,0,0,1,2.116-.9,2.929,2.929,0,0,1,2.17.907,2.964,2.964,0,0,1,.9,2.16m37.975,2.44H41.421L21.342,90.694a14.226,14.226,0,0,1-1.217-2.442H19.96a40.215,40.215,0,0,1,.216,5.343V121.7H15.617V82.8h5.918l19.478,30.52c.775,1.211,1.306,2.079,1.575,2.6H42.7a41.1,41.1,0,0,1-.274-5.72V82.8h4.532v38.9h0Zm29.233,0H55.567V82.8H75.291v4.123H60.123V99.863H74.177v4.124H60.123v13.591H76.186V121.7Zm31.274-34.78H96.254V121.7H91.7V86.922H80.468V82.8H107.46v4.125Z"/>
  </g>
</svg>
