<svg id="Layer_5" enable-background="new 0 0 64 64" height="512" viewBox="0 0 64 64" width="512" xmlns="http://www.w3.org/2000/svg"><path d="m56.003 15.233c1.825-1.468 2.997-3.715 2.997-6.233 0-4.411-3.589-8-8-8s-8 3.589-8 8c0 2.518 1.172 4.764 2.996 6.232-2.979.679-5.45 2.837-6.483 5.768h-5.513v18h10v20c0 2.206 1.794 4 4 4 1.201 0 2.266-.542 3-1.382.734.84 1.799 1.382 3 1.382 2.206 0 4-1.794 4-4v-24.295c2.888-.863 5-3.541 5-6.705v-4c0-4.273-2.996-7.853-6.997-8.767zm-11.003-6.233c0-3.309 2.691-6 6-6s6 2.691 6 6-2.691 6-6 6-6-2.691-6-6zm3 8h3 3c3.859 0 7 3.141 7 7v2h-3v-4h-2v5c0 .552-.448 1-1 1h-7v-7h-6.316c1.14-2.404 3.573-4 6.316-4zm-12 6h10v5h-1.5c-1.93 0-3.5 1.57-3.5 3.5s1.57 3.5 3.5 3.5h1.5v2h-10zm20 36c0 1.103-.897 2-2 2s-2-.897-2-2v-20h-2v20c0 1.103-.897 2-2 2s-2-.897-2-2v-20h2v-4h8zm0-26h-11.5c-.827 0-1.5-.673-1.5-1.5s.673-1.5 1.5-1.5h10.5c1.302 0 2.402-.839 2.816-2h3.184c0 2.757-2.243 5-5 5z"/><path d="m30 39v-18h-5.512c-1.034-2.932-3.504-5.089-6.483-5.768 1.823-1.468 2.995-3.714 2.995-6.232 0-4.411-3.589-8-8-8s-8 3.589-8 8c0 2.518 1.172 4.765 2.997 6.233-4.001.914-6.997 4.494-6.997 8.767v4c0 3.164 2.113 5.842 5 6.705v24.295c0 2.206 1.794 4 4 4 1.201 0 2.266-.542 3-1.382.734.84 1.799 1.382 3 1.382 2.206 0 4-1.794 4-4v-20zm-2-2h-10v-2h1.5c1.93 0 3.5-1.57 3.5-3.5s-1.57-3.5-3.5-3.5h-1.5v-5h10zm-21-28c0-3.309 2.691-6 6-6s6 2.691 6 6-2.691 6-6 6-6-2.691-6-6zm3 8h3 3c2.743 0 5.176 1.596 6.316 4h-6.316v7h-7c-.552 0-1-.448-1-1v-5h-2v4h-3v-2c0-3.859 3.141-7 7-7zm-7 11h3.184c.414 1.161 1.514 2 2.816 2h10.5c.827 0 1.5.673 1.5 1.5s-.673 1.5-1.5 1.5h-11.5c-2.757 0-5-2.243-5-5zm15 31c0 1.103-.897 2-2 2s-2-.897-2-2v-20h-2v20c0 1.103-.897 2-2 2s-2-.897-2-2v-24h8v4h2z"/><path d="m30 53.703v-4.703h12v-6h-21.174zm10-6.703h-12v1.297l-2.826-3.297h14.826z"/><path d="m32 51h2v2h-2z"/><path d="m36 51h2v2h-2z"/><path d="m40 51h2v2h-2z"/><path d="m35 4.297v4.703h-12v6h21.174zm-10 6.703h12v-1.297l2.826 3.297h-14.826z"/><path d="m31 5h2v2h-2z"/><path d="m27 5h2v2h-2z"/><path d="m23 5h2v2h-2z"/></svg>